<svg width="45" height="45" viewBox="0 0 45 45" fill="none" xmlns="http://www.w3.org/2000/svg">
<path d="M22.4981 13.8318C20.1987 13.8318 17.9935 14.7452 16.3675 16.3712C14.7416 17.9971 13.8281 20.2024 13.8281 22.5018C13.8281 24.8012 14.7416 27.0065 16.3675 28.6324C17.9935 30.2583 20.1987 31.1718 22.4981 31.1718C24.7976 31.1718 27.0028 30.2583 28.6287 28.6324C30.2547 27.0065 31.1681 24.8012 31.1681 22.5018C31.1681 20.2024 30.2547 17.9971 28.6287 16.3712C27.0028 14.7452 24.7976 13.8318 22.4981 13.8318ZM22.4981 28.1324C21.0043 28.1324 19.5716 27.539 18.5153 26.4827C17.459 25.4264 16.8656 23.9937 16.8656 22.4999C16.8656 21.0061 17.459 19.5734 18.5153 18.5171C19.5716 17.4608 21.0043 16.8674 22.4981 16.8674C23.992 16.8674 25.4246 17.4608 26.4809 18.5171C27.5372 19.5734 28.1306 21.0061 28.1306 22.4999C28.1306 23.9937 27.5372 25.4264 26.4809 26.4827C25.4246 27.539 23.992 28.1324 22.4981 28.1324Z" fill="#616161"/>
<path d="M31.5115 15.5344C32.6278 15.5344 33.5327 14.6295 33.5327 13.5132C33.5327 12.3969 32.6278 11.4919 31.5115 11.4919C30.3952 11.4919 29.4902 12.3969 29.4902 13.5132C29.4902 14.6295 30.3952 15.5344 31.5115 15.5344Z" fill="#616161"/>
<path d="M38.4995 11.458C38.0655 10.3371 37.4022 9.31918 36.552 8.46939C35.7019 7.61959 34.6837 6.95666 33.5627 6.52303C32.2508 6.03057 30.8649 5.76429 29.4639 5.73553C27.6583 5.65678 27.0864 5.63428 22.5077 5.63428C17.9289 5.63428 17.342 5.63428 15.5514 5.73553C14.1515 5.76282 12.7666 6.02916 11.4564 6.52303C10.335 6.95615 9.31659 7.61891 8.46641 8.46877C7.61623 9.31863 6.95308 10.3368 6.51953 11.458C6.02698 12.7698 5.76131 14.1558 5.73391 15.5568C5.65328 17.3605 5.62891 17.9324 5.62891 22.513C5.62891 27.0918 5.62891 27.6749 5.73391 29.4693C5.76203 30.8718 6.02641 32.2555 6.51953 33.5699C6.9543 34.6907 7.61809 35.7085 8.46847 36.5582C9.31886 37.408 10.3372 38.071 11.4583 38.5049C12.766 39.0171 14.1515 39.3025 15.5552 39.3486C17.3608 39.4274 17.9327 39.4518 22.5114 39.4518C27.0902 39.4518 27.677 39.4518 29.4677 39.3486C30.8685 39.3202 32.2543 39.0545 33.5664 38.563C34.6872 38.1284 35.7051 37.4649 36.5551 36.6148C37.4051 35.7648 38.0686 34.7469 38.5033 33.6262C38.9964 32.3137 39.2608 30.9299 39.2889 29.5274C39.3695 27.7237 39.3939 27.1518 39.3939 22.5712C39.3939 17.9905 39.3939 17.4093 39.2889 15.6149C39.2671 14.1942 39 12.7879 38.4995 11.458ZM36.2158 29.3305C36.2037 30.4111 36.0065 31.4816 35.6327 32.4955C35.3511 33.2247 34.92 33.8868 34.3672 34.4393C33.8143 34.9918 33.1519 35.4225 32.4227 35.7036C31.42 36.0757 30.3608 36.273 29.2914 36.2868C27.5102 36.3693 27.0077 36.3899 22.4402 36.3899C17.8689 36.3899 17.402 36.3899 15.587 36.2868C14.5181 36.2737 13.4595 36.0764 12.4577 35.7036C11.7258 35.4242 11.0608 34.9943 10.5056 34.4417C9.95037 33.8891 9.51735 33.2261 9.23453 32.4955C8.86599 31.4925 8.66887 30.4346 8.65141 29.3662C8.57078 27.5849 8.55203 27.0824 8.55203 22.5149C8.55203 17.9455 8.55203 17.4787 8.65141 15.6618C8.66353 14.5818 8.86076 13.5119 9.23453 12.4987C9.80641 11.0193 10.9783 9.8549 12.4577 9.28865C13.46 8.91766 14.5183 8.72046 15.587 8.70553C17.3702 8.6249 17.8708 8.6024 22.4402 8.6024C27.0095 8.6024 27.4783 8.6024 29.2914 8.70553C30.3609 8.71839 31.4202 8.91566 32.4227 9.28865C33.1519 9.57041 33.8142 10.0015 34.367 10.5543C34.9198 11.1071 35.3509 11.7694 35.6327 12.4987C36.0012 13.5017 36.1983 14.5596 36.2158 15.628C36.2964 17.4112 36.317 17.9118 36.317 22.4812C36.317 27.0487 36.317 27.5399 36.2364 29.3324H36.2158V29.3305Z" fill="#616161"/>
</svg>
