<svg width="45" height="45" viewBox="0 0 45 45" fill="none" xmlns="http://www.w3.org/2000/svg">
<path d="M38.4132 32.1375L30.7913 25.2075C30.431 24.88 29.9576 24.7053 29.4709 24.7204C28.9843 24.7354 28.5225 24.939 28.1832 25.2881L23.6963 29.9025C22.6163 29.6962 20.445 29.0193 18.21 26.79C15.975 24.5531 15.2982 22.3762 15.0975 21.3037L19.7082 16.815C20.0577 16.4758 20.2615 16.014 20.2766 15.5272C20.2916 15.0404 20.1167 14.5669 19.7888 14.2068L12.8607 6.58683C12.5326 6.22563 12.0767 6.00653 11.5897 5.97607C11.1027 5.94561 10.623 6.10619 10.2525 6.42371L6.18379 9.91308C5.85962 10.2384 5.66614 10.6714 5.64004 11.13C5.61192 11.5987 5.07567 22.7025 13.6857 31.3162C21.1969 38.8256 30.6057 39.375 33.1969 39.375C33.5757 39.375 33.8082 39.3637 33.87 39.36C34.3285 39.3343 34.7613 39.1399 35.085 38.8143L38.5725 34.7437C38.8913 34.3744 39.0531 33.8951 39.0233 33.4081C38.9935 32.9212 38.7746 32.4652 38.4132 32.1375Z" fill="#A5617C"/>
</svg>
