<svg width="45" height="45" viewBox="0 0 45 45" fill="none" xmlns="http://www.w3.org/2000/svg">
<path fill-rule="evenodd" clip-rule="evenodd" d="M34.5056 10.5619C32.9463 8.99234 31.091 7.74777 29.0472 6.90033C27.0035 6.05289 24.8119 5.61943 22.5994 5.62505C13.3219 5.62505 5.76938 13.1757 5.76563 22.4569C5.76563 25.4232 6.54 28.3182 8.01187 30.8719L5.625 39.5926L14.5481 37.2507C17.0164 38.5943 19.7816 39.2988 22.5919 39.3001H22.5994C31.875 39.3001 39.4275 31.7494 39.4313 22.4682C39.4376 20.2566 39.0056 18.0657 38.1601 16.022C37.3147 13.9784 36.0726 12.1226 34.5056 10.5619ZM22.5994 36.4594H22.5938C20.0878 36.4597 17.6281 35.7855 15.4725 34.5076L14.9625 34.2038L9.6675 35.5932L11.0794 30.4313L10.7475 29.9026C9.34648 27.6721 8.60481 25.0909 8.60813 22.4569C8.61188 14.7432 14.8875 8.46755 22.605 8.46755C24.443 8.46347 26.2635 8.82396 27.9612 9.52815C29.6589 10.2323 31.2001 11.2663 32.4956 12.5701C33.798 13.8676 34.8304 15.4105 35.5329 17.1094C36.2355 18.8084 36.5943 20.6297 36.5887 22.4682C36.585 30.1819 30.3094 36.4594 22.5994 36.4594ZM30.2738 25.9801C29.8519 25.7682 27.7856 24.7519 27.3994 24.6113C27.015 24.4707 26.7356 24.4013 26.4544 24.8213C26.1731 25.2413 25.3669 26.1882 25.1213 26.4694C24.8756 26.7507 24.63 26.7844 24.21 26.5744C23.79 26.3644 22.4344 25.9201 20.8275 24.4876C19.5769 23.3719 18.7331 21.9957 18.4875 21.5738C18.2419 21.1519 18.4612 20.9251 18.6731 20.7151C18.8625 20.5276 19.0931 20.2238 19.3031 19.9782C19.5131 19.7326 19.5825 19.5582 19.7231 19.2769C19.8638 18.9957 19.7944 18.7501 19.6875 18.5401C19.5825 18.3282 18.7406 16.2582 18.39 15.4163C18.0506 14.6007 17.7037 14.7094 17.445 14.6982C17.177 14.6872 16.9088 14.6822 16.6406 14.6832C16.4274 14.6886 16.2175 14.7381 16.0242 14.8284C15.831 14.9187 15.6585 15.048 15.5175 15.2082C15.1313 15.6301 14.0456 16.6463 14.0456 18.7163C14.0456 20.7863 15.5531 22.7869 15.7631 23.0682C15.9731 23.3494 18.7294 27.5963 22.9481 29.4188C23.9531 29.8519 24.7369 30.1107 25.3462 30.3057C26.3531 30.6263 27.27 30.5794 27.9956 30.4726C28.8037 30.3526 30.4837 29.4563 30.8344 28.4738C31.185 27.4913 31.185 26.6494 31.08 26.4732C30.975 26.2969 30.6919 26.1901 30.2738 25.9801Z" fill="#A5617C"/>
</svg>
