<svg width="24" height="24" viewBox="0 0 24 24" fill="none" xmlns="http://www.w3.org/2000/svg">
<path d="M21.92 12.3799C22.02 12.1365 22.02 11.8634 21.92 11.6199C21.8724 11.4972 21.801 11.385 21.71 11.2899L14.71 4.28994C14.6168 4.1967 14.5061 4.12274 14.3842 4.07228C14.2624 4.02182 14.1319 3.99585 14 3.99585C13.7337 3.99585 13.4783 4.10164 13.29 4.28994C13.1968 4.38318 13.1228 4.49387 13.0723 4.61569C13.0219 4.73751 12.9959 4.86808 12.9959 4.99994C12.9959 5.26624 13.1017 5.52164 13.29 5.70994L18.59 10.9999H3C2.73478 10.9999 2.48043 11.1053 2.29289 11.2928C2.10536 11.4804 2 11.7347 2 11.9999C2 12.2652 2.10536 12.5195 2.29289 12.707C2.48043 12.8946 2.73478 12.9999 3 12.9999H18.59L13.29 18.2899C13.1963 18.3829 13.1219 18.4935 13.0711 18.6154C13.0203 18.7372 12.9942 18.8679 12.9942 18.9999C12.9942 19.132 13.0203 19.2627 13.0711 19.3845C13.1219 19.5064 13.1963 19.617 13.29 19.7099C13.383 19.8037 13.4936 19.8781 13.6154 19.9288C13.7373 19.9796 13.868 20.0057 14 20.0057C14.132 20.0057 14.2627 19.9796 14.3846 19.9288C14.5064 19.8781 14.617 19.8037 14.71 19.7099L21.71 12.7099C21.801 12.6148 21.8724 12.5027 21.92 12.3799Z" fill="white"/>
</svg>
