<svg width="45" height="45" viewBox="0 0 45 45" fill="none" xmlns="http://www.w3.org/2000/svg">
<path d="M22.4981 13.8318C20.1987 13.8318 17.9935 14.7452 16.3675 16.3712C14.7416 17.9971 13.8281 20.2024 13.8281 22.5018C13.8281 24.8012 14.7416 27.0065 16.3675 28.6324C17.9935 30.2583 20.1987 31.1718 22.4981 31.1718C24.7976 31.1718 27.0028 30.2583 28.6287 28.6324C30.2547 27.0065 31.1681 24.8012 31.1681 22.5018C31.1681 20.2024 30.2547 17.9971 28.6287 16.3712C27.0028 14.7452 24.7976 13.8318 22.4981 13.8318ZM22.4981 28.1324C21.0043 28.1324 19.5716 27.539 18.5153 26.4827C17.459 25.4264 16.8656 23.9937 16.8656 22.4999C16.8656 21.0061 17.459 19.5734 18.5153 18.5171C19.5716 17.4608 21.0043 16.8674 22.4981 16.8674C23.992 16.8674 25.4246 17.4608 26.4809 18.5171C27.5372 19.5734 28.1306 21.0061 28.1306 22.4999C28.1306 23.9937 27.5372 25.4264 26.4809 26.4827C25.4246 27.539 23.992 28.1324 22.4981 28.1324Z" fill="#A5617C"/>
<path d="M31.5112 15.5344C32.6275 15.5344 33.5325 14.6295 33.5325 13.5132C33.5325 12.3969 32.6275 11.4919 31.5112 11.4919C30.3949 11.4919 29.49 12.3969 29.49 13.5132C29.49 14.6295 30.3949 15.5344 31.5112 15.5344Z" fill="#A5617C"/>
<path d="M38.4993 11.458C38.0652 10.3371 37.4019 9.31918 36.5518 8.46939C35.7017 7.61959 34.6835 6.95666 33.5624 6.52303C32.2505 6.03057 30.8646 5.76429 29.4637 5.73553C27.658 5.65678 27.0862 5.63428 22.5074 5.63428C17.9287 5.63428 17.3418 5.63428 15.5512 5.73553C14.1513 5.76282 12.7663 6.02916 11.4562 6.52303C10.3348 6.95615 9.31635 7.61891 8.46616 8.46877C7.61598 9.31863 6.95284 10.3368 6.51929 11.458C6.02673 12.7698 5.76106 14.1558 5.73366 15.5568C5.65304 17.3605 5.62866 17.9324 5.62866 22.513C5.62866 27.0918 5.62866 27.6749 5.73366 29.4693C5.76179 30.8718 6.02616 32.2555 6.51929 33.5699C6.95406 34.6907 7.61784 35.7085 8.46823 36.5582C9.31862 37.408 10.3369 38.071 11.458 38.5049C12.7657 39.0171 14.1512 39.3025 15.5549 39.3486C17.3605 39.4274 17.9324 39.4518 22.5112 39.4518C27.0899 39.4518 27.6768 39.4518 29.4674 39.3486C30.8682 39.3202 32.2541 39.0545 33.5662 38.563C34.687 38.1284 35.7048 37.4649 36.5549 36.6148C37.4049 35.7648 38.0684 34.7469 38.503 33.6262C38.9962 32.3137 39.2605 30.9299 39.2887 29.5274C39.3693 27.7237 39.3937 27.1518 39.3937 22.5712C39.3937 17.9905 39.3937 17.4093 39.2887 15.6149C39.2668 14.1942 38.9998 12.7879 38.4993 11.458ZM36.2155 29.3305C36.2034 30.4111 36.0062 31.4816 35.6324 32.4955C35.3508 33.2247 34.9198 33.8868 34.3669 34.4393C33.8141 34.9918 33.1517 35.4225 32.4224 35.7036C31.4197 36.0757 30.3606 36.273 29.2912 36.2868C27.5099 36.3693 27.0074 36.3899 22.4399 36.3899C17.8687 36.3899 17.4018 36.3899 15.5868 36.2868C14.5179 36.2737 13.4593 36.0764 12.4574 35.7036C11.7256 35.4242 11.0605 34.9943 10.5053 34.4417C9.95012 33.8891 9.5171 33.2261 9.23429 32.4955C8.86575 31.4925 8.66862 30.4346 8.65116 29.3662C8.57054 27.5849 8.55179 27.0824 8.55179 22.5149C8.55179 17.9455 8.55179 17.4787 8.65116 15.6618C8.66328 14.5818 8.86052 13.5119 9.23429 12.4987C9.80616 11.0193 10.978 9.8549 12.4574 9.28865C13.4598 8.91766 14.5181 8.72046 15.5868 8.70553C17.3699 8.6249 17.8705 8.6024 22.4399 8.6024C27.0093 8.6024 27.478 8.6024 29.2912 8.70553C30.3607 8.71839 31.42 8.91566 32.4224 9.28865C33.1517 9.57041 33.8139 10.0015 34.3667 10.5543C34.9195 11.1071 35.3506 11.7694 35.6324 12.4987C36.0009 13.5017 36.1981 14.5596 36.2155 15.628C36.2962 17.4112 36.3168 17.9118 36.3168 22.4812C36.3168 27.0487 36.3168 27.5399 36.2362 29.3324H36.2155V29.3305Z" fill="#A5617C"/>
</svg>
